<svg width="78" height="74" viewBox="0 0 78 74" fill="none" xmlns="http://www.w3.org/2000/svg">
<rect width="78" height="74" rx="10" fill="#244152"/>
<path d="M56.2222 37.0004C56.2234 38.2281 55.2294 39.2224 54.0005 39.2224H39.0055C39.0039 39.2224 39.0016 39.2228 39 39.2228C37.7728 39.2228 36.778 38.2277 36.778 37.0008V22.0008C36.778 20.7735 37.7732 19.7788 39 19.7788C40.2273 19.7788 41.2221 20.7739 41.2221 22.0008V34.7786H53.9998V34.7797C55.2279 34.7813 56.2219 35.7734 56.2219 37.0003L56.2222 37.0004ZM39 57.556C37.7727 57.556 36.778 58.5511 36.778 59.778C36.778 61.0053 37.7731 62 39 62C40.2273 62 41.222 61.0049 41.222 59.778C41.222 58.5511 40.2273 57.556 39 57.556ZM14 37.0004C14 38.2281 14.9951 39.2232 16.2232 39.2232C17.4493 39.2217 18.4445 38.2281 18.4445 37.0012C18.4461 35.7727 17.4494 34.778 16.2228 34.778C14.9959 34.7776 14.0011 35.7727 14 37.0004ZM64 37C63.9996 23.1925 52.8075 12 39 12C37.7727 12 36.778 12.9951 36.778 14.222C36.778 15.4493 37.7731 16.444 39 16.444C39.0016 16.444 39.0027 16.4437 39.0043 16.4437C50.3535 16.446 59.5529 25.6481 59.5529 36.9992L59.5552 36.9996C59.5579 38.2281 60.5511 39.2213 61.778 39.2213C63.0069 39.2217 64.0001 38.2277 63.9998 36.9996L64 37ZM26.5 15.3502C25.4374 15.9637 25.0735 17.3231 25.6866 18.3864C26.3004 19.4498 27.6595 19.8137 28.7228 19.1998C29.785 18.5864 30.1493 17.2269 29.5362 16.1643C28.9228 15.1013 27.5625 14.7362 26.5 15.3501V15.3502ZM49.2778 54.8026C48.2152 55.416 47.8513 56.7755 48.4644 57.8388C49.0778 58.901 50.4373 59.2653 51.4999 58.6514C52.5625 58.038 52.9272 56.6785 52.3133 55.6163C51.6999 54.5529 50.3404 54.1886 49.2778 54.8025V54.8026ZM17.3492 49.5009C17.963 50.5643 19.3232 50.9286 20.3862 50.3147C21.4472 49.6997 21.8119 48.3418 21.1989 47.2792C20.5854 46.2143 19.2248 45.8508 18.1626 46.4642C17.1008 47.0777 16.7369 48.4371 17.3492 49.5008L17.3492 49.5009ZM17.3496 24.5009C16.7361 25.5635 17.1 26.9229 18.163 27.5371C19.2264 28.1506 20.5846 27.7867 21.1992 26.7237C21.8127 25.6611 21.4488 24.3021 20.3858 23.6882C19.3228 23.0743 17.9634 23.4382 17.3496 24.5008V24.5009ZM56.802 47.2787C56.1885 48.3413 56.5532 49.7003 57.6158 50.3149C58.6784 50.9283 60.0374 50.5645 60.6513 49.5011C61.2648 48.4389 60.9009 47.0795 59.8375 46.466C58.7753 45.8517 57.4155 46.2156 56.802 47.2786V47.2787ZM26.4994 58.6517C27.5632 59.2651 28.9226 58.9016 29.5364 57.8379C30.1487 56.7745 29.7848 55.4167 28.7226 54.8024C27.6592 54.1874 26.2998 54.5528 25.686 55.615C25.0733 56.6772 25.4372 58.0363 26.4994 58.6516L26.4994 58.6517Z" fill="white"/>
</svg>
