<svg width="78" height="74" viewBox="0 0 78 74" fill="none" xmlns="http://www.w3.org/2000/svg">
<rect width="78" height="74" rx="10" fill="#244152"/>
<path fill-rule="evenodd" clip-rule="evenodd" d="M39 62C32.3695 62 26.0108 59.3661 21.3224 54.6776C16.6339 49.9894 14 43.6303 14 37C14 30.3697 16.6339 24.0108 21.3224 19.3224C26.0106 14.6339 32.3697 12 39 12C45.6303 12 51.9892 14.6339 56.6776 19.3224C61.3661 24.0106 64 30.3697 64 37C64 43.6303 61.3661 49.9892 56.6776 54.6776C51.9894 59.3661 45.6303 62 39 62ZM39 16.1673C33.4748 16.1673 28.176 18.3621 24.2689 22.269C20.3619 26.176 18.1671 31.4752 18.1671 37.0002C18.1671 42.5251 20.3619 47.8242 24.2689 51.7313C28.1758 55.6383 33.475 57.8331 39 57.8331C44.525 57.8331 49.824 55.6383 53.7311 51.7313C57.6381 47.8244 59.8329 42.5251 59.8329 37.0002C59.8329 33.3433 58.8703 29.7507 57.042 26.5833C55.2135 23.4164 52.5833 20.7864 49.4165 18.9578C46.2493 17.1295 42.6567 16.1669 38.9996 16.1669L39 16.1673ZM43.6459 44.7091L37.5418 38.5861C37.1114 38.163 36.8837 37.5757 36.9168 36.9734V26.5842C36.9168 25.8399 37.3137 25.1521 37.9582 24.78C38.6027 24.4079 39.3972 24.4079 40.0418 24.78C40.6863 25.1521 41.0832 25.8399 41.0832 26.5842V36.0234L46.7082 41.6484V41.6487C47.255 42.1956 47.4681 42.9929 47.2679 43.7396C47.0674 44.4867 46.4835 45.0701 45.7365 45.27C44.9894 45.4699 44.1925 45.2561 43.646 44.7088L43.6459 44.7091Z" fill="white"/>
</svg>
