<svg width="31" height="28" viewBox="0 0 31 28" fill="none" xmlns="http://www.w3.org/2000/svg">
<path d="M24.86 14C24.86 13.2711 24.2692 12.68 23.5399 12.68H5.93992C5.21099 12.68 4.61984 13.2708 4.61984 14C4.61984 14.729 5.21066 15.3201 5.93992 15.3201H23.5399C24.2689 15.3201 24.8597 14.729 24.8597 14H24.86Z" fill="#C6C6C6"/>
<path d="M5.94 20.6C5.21107 20.6 4.61992 21.1909 4.61992 21.9201C4.61992 22.6491 5.21074 23.2402 5.94 23.2402H20.02C20.7489 23.2402 21.3401 22.6494 21.3401 21.9201C21.3401 21.1912 20.7493 20.6 20.02 20.6H5.94Z" fill="#C6C6C6"/>
<path d="M28.38 6.08003C28.38 5.3511 27.7892 4.75995 27.0599 4.75995H5.93992C5.21099 4.75995 4.61984 5.35077 4.61984 6.08003C4.61984 6.80896 5.21066 7.4001 5.93992 7.4001H27.0599C27.7889 7.4001 28.3797 6.80929 28.3797 6.08003H28.38Z" fill="#C6C6C6"/>
</svg>
