<svg width="21" height="21" viewBox="0 0 21 21" fill="none" xmlns="http://www.w3.org/2000/svg">
<path d="M6.75 9H2.25C1.65317 9 1.08099 8.76295 0.658929 8.34107C0.237051 7.91903 0 7.34683 0 6.75V2.25C0 1.65317 0.237051 1.08099 0.658929 0.658929C1.08097 0.237051 1.65317 0 2.25 0H6.75C7.34683 0 7.91901 0.237051 8.34107 0.658929C8.76295 1.08097 9 1.65317 9 2.25V6.75C9 7.34683 8.76295 7.91901 8.34107 8.34107C7.91903 8.76295 7.34683 9 6.75 9ZM2.25 1.5C2.05112 1.5 1.86027 1.57902 1.71964 1.71964C1.57902 1.86027 1.5 2.05112 1.5 2.25V6.75C1.5 6.94888 1.57902 7.13973 1.71964 7.28036C1.86027 7.42098 2.05112 7.5 2.25 7.5H6.75C6.94888 7.5 7.13973 7.42098 7.28036 7.28036C7.42098 7.13973 7.5 6.94888 7.5 6.75V2.25C7.5 2.05112 7.42098 1.86027 7.28036 1.71964C7.13973 1.57902 6.94888 1.5 6.75 1.5H2.25ZM18.75 0H13.5C12.9032 0 12.331 0.237051 11.9089 0.658929C11.4871 1.08097 11.25 1.65317 11.25 2.25V7.5C11.25 8.09683 11.4871 8.66901 11.9089 9.09107C12.331 9.51295 12.9032 9.75 13.5 9.75H18.75C19.3468 9.75 19.919 9.51295 20.3411 9.09107C20.7629 8.66903 21 8.09683 21 7.5V2.25C21 1.65317 20.7629 1.08099 20.3411 0.658929C19.919 0.237051 19.3468 0 18.75 0ZM18.75 21H14.25C13.6532 21 13.081 20.7629 12.6589 20.3411C12.2371 19.919 12 19.3468 12 18.75V14.25C12 13.6532 12.2371 13.081 12.6589 12.6589C13.081 12.2371 13.6532 12 14.25 12H18.75C19.3468 12 19.919 12.2371 20.3411 12.6589C20.7629 13.081 21 13.6532 21 14.25V18.75C21 19.3468 20.7629 19.919 20.3411 20.3411C19.919 20.7629 19.3468 21 18.75 21ZM14.25 13.5C14.0511 13.5 13.8603 13.579 13.7196 13.7196C13.579 13.8603 13.5 14.0511 13.5 14.25V18.75C13.5 18.9489 13.579 19.1397 13.7196 19.2804C13.8603 19.421 14.0511 19.5 14.25 19.5H18.75C18.9489 19.5 19.1397 19.421 19.2804 19.2804C19.421 19.1397 19.5 18.9489 19.5 18.75V14.25C19.5 14.0511 19.421 13.8603 19.2804 13.7196C19.1397 13.579 18.9489 13.5 18.75 13.5H14.25ZM7.5 11.25H2.25C1.65317 11.25 1.08099 11.4871 0.658929 11.9089C0.237051 12.331 0 12.9032 0 13.5V18.75C0 19.3468 0.237051 19.919 0.658929 20.3411C1.08097 20.7629 1.65317 21 2.25 21H7.5C8.09683 21 8.66901 20.7629 9.09107 20.3411C9.51295 19.919 9.75 19.3468 9.75 18.75V13.5C9.75 12.9032 9.51295 12.331 9.09107 11.9089C8.66903 11.4871 8.09683 11.25 7.5 11.25Z" fill="white"/>
</svg>
